PathFileType	4	(X/Y/Z)	C:\Users\°ÂÌØÂü\Desktop\20210112\bx_n_5_501-Unnamed.trc
DataRate	CameraRate	NumFrames	NumMarkers	Units	OrigDataRate	OrigDataStartFrame	OrigNumFrames
50.00	50.00	       4	0	mm	50.00	453	       517
Frame#	Time	
		

453	9.040	-732.68359	105.81932	1848.68005	-613.55780	243.70146	1069.42407	-585.09143	0.71473	806.86621	-690.82043	146.70682	577.19440	-702.77979	270.07150	745.99347	-596.16797	228.30954	795.34271	-731.76434	251.19466	644.05695	-679.05127	208.58640	536.13885	-773.42780	257.96793	503.70639	-517.61505	-72.82166	143.27306	-549.08411	-24.86969	164.30327	-793.78711	37.01478	174.43025	-705.48785	287.32861	1538.02087	-600.29877	26.94150	168.63597	-601.21307	106.59116	1360.50793	-712.46759	155.14145	217.94400	-796.59796	178.93109	183.97134	-769.41577	228.12625	205.35403	-592.84399	218.93912	174.06401	-882.49835	296.27173	144.77898	-556.43799	254.90015	164.58253	-660.84192	298.27365	157.10878	-624.06927	306.70175	158.54054	-528.12537	304.77161	146.83104	-675.27740	52.54787	160.82263	-593.22290	-3.51284	1057.27039	-752.46191	-47.75882	489.92749	-758.22943	-21.49893	207.70549	-875.95648	-78.79716	141.44162	-655.10388	-73.08855	874.24585	-699.85059	-35.99733	617.14465				-676.05865	173.89282	159.27052	-606.04425	-72.84827	157.70326	-648.52625	-67.34019	161.98302	-676.55487	-60.85633	759.50397	-718.66644	69.01175	217.08942	-681.90247	-72.08530	1542.17004	-801.57593	88.30429	1055.79907	-695.71539	284.07169	876.65985	-689.05298	73.02406	574.49323	-660.68304	14.87962	519.44812	-733.45355	248.61293	577.60852	-708.13123	-33.87496	568.86169	
454	9.060	-734.87500	105.70186	1848.22876	-612.13361	243.09613	1069.11511	-584.11743	-0.11732	806.35339	-690.51520	146.54048	577.13080	-701.24493	270.33936	746.26056	-594.74426	227.80261	795.38190	-730.57184	251.26350	644.34491	-678.03760	208.48665	536.15771	-773.13965	257.38022	503.73553	-517.72272	-72.92245	143.19617	-549.17938	-24.60581	164.36632	-793.80444	36.85403	174.40422	-706.63397	287.07233	1537.74731	-600.29053	27.02408	168.64453	-601.27515	106.34701	1360.70007	-712.81439	154.85292	217.64786	-796.54437	178.89404	184.08733	-769.27118	228.22586	205.08780	-592.84155	218.73698	174.04256	-882.51276	296.11960	144.68694	-556.27655	254.79814	164.55585	-660.76190	298.28259	157.32108	-624.03314	306.60547	158.64734	-528.04419	304.62152	146.80469	-675.36200	52.42488	160.77328	-591.95386	-4.26327	1057.58459	-752.07275	-48.28961	489.70590	-758.51959	-21.87316	207.71986	-875.95648	-78.79716	141.44162	-654.40729	-73.56168	874.56494	-699.58789	-36.72124	616.85541				-676.05865	173.89282	159.27052	-605.98230	-72.87928	157.68544	-648.76849	-67.56700	161.54247	-675.78778	-61.74443	759.47101	-718.66602	68.93160	217.13324	-684.30121	-72.30050	1541.91394	-800.23108	87.72060	1055.73669	-694.78595	283.33716	876.17072	-688.65302	72.21606	573.91827	-660.18005	14.76439	519.67157	-732.78253	248.31802	577.14490	-706.89685	-35.19026	569.66882	
455	9.080	-737.03278	105.81410	1848.00806	-610.21942	242.74254	1069.10962	-583.51373	-0.68429	806.22650	-689.93018	146.47264	576.61707	-699.95178	269.31064	745.85852	-593.45477	227.16687	795.35376	-729.70837	250.67519	644.25299	-677.20825	207.81039	536.09381	-772.19293	257.32510	503.66190	-517.68622	-72.90350	143.12746	-549.08508	-24.76087	164.58318	-794.22162	36.66293	174.66058	-708.27991	286.41113	1537.15259	-600.40790	26.84976	168.73744	-602.12408	105.85869	1360.72253	-713.02887	154.35773	217.44659	-796.52618	178.80470	184.12263	-769.25000	227.96968	205.34641	-593.24133	218.19237	173.68282	-882.47034	296.07187	144.68552	-556.20599	254.73473	164.58562	-660.70319	298.04431	157.73409	-623.90247	306.55652	158.84695	-528.00739	304.49124	146.85538	-675.27740	52.54787	160.82263	-590.86676	-4.50269	1056.88318	-751.79663	-48.77050	489.47351	-758.49200	-22.18059	207.67607	-875.99792	-78.69180	141.55168	-652.58832	-74.08346	873.81580	-698.74377	-37.06040	616.79211				-676.05865	173.89282	159.27052	-606.09296	-72.93212	157.69592	-648.83997	-67.73934	161.40965	-674.66718	-62.13565	759.03052	-718.92657	68.41872	217.06577	-685.77875	-72.75129	1542.11536	-798.49487	87.57361	1055.47046	-692.84180	283.04733	876.13348	-688.20465	71.84888	574.18683	-659.86823	14.80971	519.29047	-731.94751	248.12984	577.78101	-705.45526	-36.25891	570.24811	
456	9.100	-739.23761	105.60124	1847.64734	-607.95844	242.13620	1068.94421	-582.09814	-0.73773	806.45856	-689.23694	145.86810	576.63647	-698.49512	269.23917	745.93683	-592.03479	226.40430	794.59485	-728.22968	250.24103	644.24957	-676.51355	207.49495	535.60413	-771.12000	257.20306	503.79398	-517.70514	-72.82088	143.30711	-548.97699	-24.64355	164.36774	-794.22162	36.66293	174.66058	-709.30255	286.34097	1536.87952	-600.49469	26.83288	168.59724	-603.12213	105.26009	1360.98315	-712.96722	154.39409	217.54047	-796.58044	178.89352	184.03250	-769.09229	228.14497	205.54161	-593.31506	217.95403	173.64658	-882.51044	296.12030	144.67557	-556.29749	254.79959	164.53056	-660.42468	297.91895	157.80136	-623.90247	306.55652	158.84695	-528.12799	304.54727	146.78020	-675.27740	52.54787	160.82263	-588.91150	-5.34109	1057.17908	-751.33020	-49.10785	489.37799	-758.47681	-22.30400	207.66872	-875.95648	-78.79716	141.44162	-651.56146	-74.72189	873.69464	-697.97198	-37.12197	616.34424				-676.05865	173.89282	159.27052	-605.90063	-72.82854	157.73566	-648.77393	-67.75629	161.51306	-673.52795	-62.59829	759.32080	-718.99664	68.31042	217.03105	-687.64856	-72.94765	1542.10120	-796.76288	87.16597	1055.15686	-691.31769	283.01508	875.95837	-687.90320	71.55317	574.33374	-659.55273	14.39523	519.02618	-730.69348	247.55338	577.53357	-705.15717	-36.51480	570.03271	
